<?xml version="1.0" encoding="utf-8"?>
<!-- Generator: Adobe Illustrator 22.0.1, SVG Export Plug-In . SVG Version: 6.00 Build 0)  -->
<svg version="1.1" id="Ebene_1" xmlns="http://www.w3.org/2000/svg" xmlns:xlink="http://www.w3.org/1999/xlink" x="0px" y="0px"
	 viewBox="0 0 133.6 148.9" style="enable-background:new 0 0 133.6 148.9;" xml:space="preserve">
<style type="text/css">
	.st0{fill:#69C4CD;}
	.st1{fill:#FFFBDC;}
</style>
<g>
	<g>
		<path class="st0" d="M125.1,49.6C119.9,41.5,109,39.1,98,43c-1.3,0.5-2.4,0.9-3.2,1.3c-1,0.4-2.2,1.1-2.6,1.3
			c-0.5,0.2-0.6-0.1-0.6-0.5c0.1-0.4,0.6-1,0.9-1.4c0.9-1.1,2.4-2.1,2.4-3.1c-0.2-4,6.1-8.7,12.4-9.3c2-0.2,3.8-0.1,5.5,0.3
			c3.1,0,7.3-2.8,9-1.1c0.3,0.3,0.5,0.7,0.2,0.9c-1.4,1.4-2.1,3.1-0.8,4.4l0,0c0.1,0.1,0.3,0.2,0.4,0.4c5.6-3.4,9.3-9.6,9.3-16.6
			c0-10.8-8.7-19.5-19.5-19.5S91.9,8.7,91.9,19.5c0,0.2,0,0.5,0,0.7c-7.8-3.2-16.3-4.9-25.2-4.9C29.9,15.3,0,45.2,0,82.1
			s29.9,66.8,66.8,66.8s66.8-29.9,66.8-66.8C133.6,70.3,130.5,59.2,125.1,49.6z"/>
	</g>
</g>
<g>
	<path class="st1" d="M54.9,41.4c-0.5,0.3-1.1,0.4-1.9,0.4c-0.7,0-1.3-0.2-1.9-0.5c-0.6-0.3-1-0.8-1.4-1.3c-0.4-0.6-0.7-1.2-0.9-2
		c-0.2-0.8-0.3-1.6-0.3-2.6c0-0.9,0.1-1.8,0.3-2.6c0.2-0.8,0.5-1.5,0.9-2c0.4-0.6,0.9-1,1.4-1.3c0.6-0.3,1.2-0.5,1.8-0.5
		c0.7,0,1.3,0.1,1.8,0.4c0.5,0.3,1,0.6,1.3,1.1L55,32c-0.5-0.7-1.1-1-1.8-1c-0.4,0-0.8,0.1-1.1,0.4c-0.3,0.2-0.6,0.6-0.8,1
		c-0.2,0.4-0.4,0.9-0.5,1.4s-0.2,1.1-0.2,1.7c0,0.6,0.1,1.2,0.2,1.7s0.3,1,0.5,1.4c0.2,0.4,0.5,0.7,0.8,1c0.3,0.2,0.7,0.4,1.1,0.4
		c0.4,0,0.7-0.1,1-0.3c0.3-0.2,0.5-0.5,0.7-0.8l1.2,1.4C55.8,40.7,55.4,41.1,54.9,41.4z"/>
	<path class="st1" d="M58.9,41.5V29.4H61v10.3h3.4v1.9H58.9z"/>
	<path class="st1" d="M74.3,39c-0.1,0.6-0.4,1.1-0.7,1.5s-0.7,0.7-1.2,1c-0.5,0.2-1.1,0.4-1.8,0.4c-0.7,0-1.3-0.1-1.8-0.4
		s-0.9-0.6-1.2-1S67.2,39.6,67,39c-0.1-0.6-0.2-1.2-0.2-1.8v-7.9h2.1V37c0,0.4,0,0.7,0.1,1.1c0.1,0.4,0.1,0.7,0.3,0.9
		s0.3,0.5,0.5,0.6s0.5,0.2,0.9,0.2c0.4,0,0.6-0.1,0.9-0.2c0.2-0.2,0.4-0.4,0.5-0.6s0.2-0.6,0.3-0.9c0.1-0.3,0.1-0.7,0.1-1.1v-7.7h2
		v7.9C74.5,37.9,74.4,38.5,74.3,39z"/>
	<path class="st1" d="M85.1,38.1c0,0.6-0.1,1.2-0.3,1.6s-0.5,0.8-0.8,1c-0.3,0.3-0.7,0.5-1.1,0.6c-0.4,0.1-0.8,0.2-1.2,0.2h-3.6
		V29.4h3.2c0.4,0,0.7,0,1.1,0.1c0.4,0.1,0.8,0.2,1.1,0.5c0.3,0.2,0.6,0.5,0.8,0.9s0.3,0.9,0.3,1.5c0,0.8-0.2,1.4-0.5,1.8
		c-0.3,0.4-0.7,0.7-1.1,0.9v0c0.2,0.1,0.5,0.2,0.7,0.3c0.2,0.1,0.5,0.3,0.6,0.6c0.2,0.2,0.4,0.5,0.5,0.9
		C85.1,37.3,85.1,37.7,85.1,38.1z M82.8,32.8c0-0.3,0-0.6-0.1-0.8c-0.1-0.2-0.2-0.4-0.4-0.5c-0.2-0.1-0.3-0.2-0.5-0.3
		c-0.2-0.1-0.4-0.1-0.6-0.1H80v3.4h1.2c0.2,0,0.4,0,0.6-0.1c0.2-0.1,0.4-0.2,0.5-0.3c0.2-0.1,0.3-0.3,0.4-0.5S82.8,33.1,82.8,32.8z
		 M83.1,38c0-0.4-0.1-0.7-0.2-0.9c-0.1-0.2-0.3-0.4-0.4-0.6c-0.2-0.2-0.4-0.3-0.6-0.3c-0.2-0.1-0.4-0.1-0.7-0.1H80v3.8h1.3
		c0.3,0,0.5,0,0.7-0.1c0.2-0.1,0.4-0.2,0.6-0.3s0.3-0.3,0.4-0.6C83.1,38.6,83.1,38.3,83.1,38z"/>
	<path class="st1" d="M27.9,62.7v-5.4h-3.6v5.4h-2V50.6h2v4.9h3.6v-4.9h2v12.2H27.9z"/>
	<path class="st1" d="M33.7,62.7V50.6h2.1v12.2H33.7z"/>
	<path class="st1" d="M45.4,62.7c-0.5,0.2-1.1,0.3-1.8,0.3c-0.7,0-1.4-0.2-1.9-0.5c-0.6-0.3-1.1-0.7-1.5-1.3s-0.7-1.2-0.9-2
		c-0.2-0.8-0.3-1.6-0.3-2.6c0-0.9,0.1-1.8,0.3-2.6c0.2-0.8,0.5-1.5,0.9-2c0.4-0.6,0.9-1,1.4-1.3c0.6-0.3,1.2-0.5,1.9-0.5
		c0.7,0,1.3,0.1,1.9,0.4c0.5,0.3,1,0.6,1.3,1.1l-1.2,1.4c-0.5-0.7-1.1-1-1.9-1c-0.4,0-0.8,0.1-1.1,0.4c-0.3,0.2-0.6,0.6-0.8,1
		c-0.2,0.4-0.4,0.9-0.5,1.4C41.1,55.5,41,56,41,56.6c0,0.6,0.1,1.2,0.2,1.7c0.1,0.5,0.3,1,0.5,1.4c0.2,0.4,0.5,0.7,0.8,1
		c0.3,0.2,0.7,0.3,1.1,0.3c0.3,0,0.5,0,0.7-0.1c0.2-0.1,0.4-0.1,0.5-0.2v-3.1h-1.5v-1.8h3.4V62C46.4,62.3,45.9,62.5,45.4,62.7z"/>
	<path class="st1" d="M55.9,62.7v-5.4h-3.6v5.4h-2V50.6h2v4.9h3.6v-4.9h2v12.2H55.9z"/>
	<path class="st1" d="M61.6,62.7V50.6h2.1v10.3h3.4v1.9H61.6z"/>
	<path class="st1" d="M69.8,62.7V50.6h2.1v12.2H69.8z"/>
	<path class="st1" d="M81.5,62.7C81,62.9,80.4,63,79.7,63c-0.7,0-1.4-0.2-1.9-0.5c-0.6-0.3-1.1-0.7-1.5-1.3s-0.7-1.2-0.9-2
		s-0.3-1.6-0.3-2.6c0-0.9,0.1-1.8,0.3-2.6c0.2-0.8,0.5-1.5,0.9-2c0.4-0.6,0.9-1,1.4-1.3c0.6-0.3,1.2-0.5,1.9-0.5
		c0.7,0,1.3,0.1,1.9,0.4c0.5,0.3,1,0.6,1.3,1.1l-1.2,1.4c-0.5-0.7-1.1-1-1.9-1c-0.4,0-0.8,0.1-1.1,0.4s-0.6,0.6-0.8,1
		c-0.2,0.4-0.4,0.9-0.5,1.4s-0.2,1.1-0.2,1.7c0,0.6,0.1,1.2,0.2,1.7s0.3,1,0.5,1.4c0.2,0.4,0.5,0.7,0.8,1c0.3,0.2,0.7,0.3,1.1,0.3
		c0.3,0,0.5,0,0.7-0.1s0.4-0.1,0.5-0.2v-3.1h-1.5v-1.8h3.4V62C82.5,62.3,82.1,62.5,81.5,62.7z"/>
	<path class="st1" d="M92,62.7v-5.4h-3.6v5.4h-2V50.6h2v4.9H92v-4.9h2v12.2H92z"/>
	<path class="st1" d="M101.1,52.3v10.4h-2V52.3h-2.3v-1.8h6.6v1.8H101.1z"/>
	<path class="st1" d="M110.9,52.9c-0.4-0.5-1-0.8-1.7-0.8c-0.2,0-0.4,0-0.6,0.1c-0.2,0.1-0.3,0.2-0.5,0.3c-0.1,0.1-0.3,0.3-0.4,0.5
		s-0.1,0.5-0.1,0.8c0,0.5,0.2,0.9,0.5,1.2c0.3,0.3,0.7,0.5,1.2,0.8c0.3,0.1,0.6,0.3,0.9,0.5s0.6,0.4,0.8,0.7s0.5,0.6,0.6,1
		c0.2,0.4,0.2,0.8,0.2,1.3c0,0.6-0.1,1.1-0.3,1.6c-0.2,0.5-0.4,0.8-0.8,1.2s-0.7,0.6-1.1,0.7c-0.4,0.2-0.9,0.2-1.3,0.2
		c-0.7,0-1.3-0.1-1.9-0.4c-0.6-0.3-1-0.6-1.4-1l1.1-1.5c0.3,0.3,0.6,0.6,1,0.8c0.4,0.2,0.8,0.3,1.1,0.3c0.4,0,0.8-0.1,1.1-0.4
		s0.4-0.7,0.4-1.3c0-0.5-0.2-0.9-0.5-1.3c-0.3-0.3-0.8-0.6-1.3-0.9c-0.3-0.2-0.6-0.3-0.9-0.5s-0.5-0.4-0.8-0.7
		c-0.2-0.3-0.4-0.6-0.5-0.9c-0.1-0.4-0.2-0.8-0.2-1.3c0-0.6,0.1-1.2,0.3-1.6c0.2-0.5,0.5-0.8,0.8-1.1c0.3-0.3,0.7-0.5,1.1-0.7
		c0.4-0.1,0.8-0.2,1.3-0.2c0.6,0,1.2,0.1,1.7,0.3c0.5,0.2,0.9,0.5,1.2,0.9L110.9,52.9z"/>
</g>
</svg>
